<svg width="485" height="485" viewBox="0 0 485 485" fill="none" xmlns="http://www.w3.org/2000/svg">
<circle cx="242.5" cy="242.5" r="242.5" fill="#EAC505"/>
<line x1="207.985" y1="184.297" x2="183.985" y2="425.297" stroke="white" stroke-width="6"/>
<line y1="-3" x2="242.192" y2="-3" transform="matrix(-0.0990949 -0.995078 -0.995078 0.0990949 298 425)" stroke="white" stroke-width="6"/>
<line x1="130" y1="419" x2="355" y2="419" stroke="white" stroke-width="20"/>
<line x1="206" y1="163" x2="206" y2="115" stroke="white" stroke-width="6"/>
<line x1="277" y1="163" x2="277" y2="115" stroke="white" stroke-width="6"/>
<path d="M195.133 112.75L241 76.8112L286.867 112.75H195.133Z" fill="white" stroke="white" stroke-width="6"/>
<rect x="196" y="286" width="92" height="36" fill="white"/>
<rect x="202" y="221" width="80" height="36" fill="white"/>
<rect x="190" y="348" width="105" height="36" fill="white"/>
<rect x="196" y="166" width="90" height="15" fill="white" stroke="white" stroke-width="6"/>
<path d="M190 138.5L73 181.368L73 95.6317L190 138.5Z" fill="white"/>
<path d="M295 138.5L412 181.368L412 95.6317L295 138.5Z" fill="#FFFDFD"/>
</svg>
